<?xml version="1.0" encoding="utf-8"?>
<!-- Generator: Adobe Illustrator 18.0.0, SVG Export Plug-In . SVG Version: 6.00 Build 0)  -->
<!DOCTYPE svg PUBLIC "-//W3C//DTD SVG 1.1//EN" "http://www.w3.org/Graphics/SVG/1.1/DTD/svg11.dtd">
<svg version="1.1" id="Layer_1" xmlns="http://www.w3.org/2000/svg" xmlns:xlink="http://www.w3.org/1999/xlink" x="0px" y="0px"
	 width="50px" height="50px" viewBox="0 0 50 50" enable-background="new 0 0 50 50" xml:space="preserve">
<path fill="#A4A7A8" d="M37.4,13.2C34.1,10,29.7,8,24.7,8c-4.9,0-9.4,2-12.6,5.2c-3.2,3.2-5.2,7.7-5.2,12.6c0,4.9,2,9.4,5.2,12.6
	c3.2,3.2,7.7,5.2,12.6,5.2c4.9,0,9.4-2,12.6-5.2c3.2-3.2,5.2-7.7,5.2-12.6S40.6,16.5,37.4,13.2 M24.7,5c5.8,0,11,2.3,14.7,6.1
	c3.8,3.8,6.1,9,6.1,14.7c0,5.8-2.3,11-6.1,14.7c-3.8,3.8-9,6.1-14.7,6.1c-5.8,0-11-2.3-14.7-6.1c-3.8-3.8-6.1-9-6.1-14.7
	s2.3-11,6.1-14.7C13.8,7.3,19,5,24.7,5z"/>
<path fill="#A4A7A8" d="M11.8,25.8c0,0.8-0.7,1.5-1.5,1.5c-0.8,0-1.5-0.7-1.5-1.5c0-4.4,1.8-8.4,4.7-11.3c2.9-2.9,6.9-4.7,11.3-4.7
	c4.4,0,8.4,1.8,11.3,4.7c2.9,2.9,4.7,6.9,4.7,11.3c0,0.8-0.7,1.5-1.5,1.5c-0.8,0-1.5-0.7-1.5-1.5c0-3.6-1.4-6.8-3.8-9.1
	c-2.3-2.3-5.6-3.8-9.1-3.8c-3.6,0-6.8,1.4-9.1,3.8C13.3,19,11.8,22.3,11.8,25.8"/>
<path fill-rule="evenodd" clip-rule="evenodd" fill="#A4A7A8" d="M24.7,23c1.6,0,2.9,1.3,2.9,2.9s-1.3,2.9-2.9,2.9
	c-1.6,0-2.9-1.3-2.9-2.9S23.2,23,24.7,23"/>
<path fill="#A4A7A8" d="M30.2,18c0.6-0.6,1.5-0.6,2.1,0c0.6,0.6,0.6,1.5,0,2.1l-6.8,6.8c-0.6,0.6-1.5,0.6-2.1,0
	c-0.6-0.6-0.6-1.5,0-2.1L30.2,18z"/>
</svg>
