<?xml version="1.0" encoding="utf-8"?>
<!-- Generator: Adobe Illustrator 18.0.0, SVG Export Plug-In . SVG Version: 6.00 Build 0)  -->
<!DOCTYPE svg PUBLIC "-//W3C//DTD SVG 1.1//EN" "http://www.w3.org/Graphics/SVG/1.1/DTD/svg11.dtd">
<svg version="1.1" id="Layer_1" xmlns="http://www.w3.org/2000/svg" xmlns:xlink="http://www.w3.org/1999/xlink" x="0px" y="0px"
	 width="50px" height="50px" viewBox="0 0 50 50" enable-background="new 0 0 50 50" xml:space="preserve">
<path fill="#A4A7A8" d="M45.3,42.7l0-26H4l0,26l20.7,0L45.3,42.7z M48.3,44.1L48.3,44.1L48.3,44.1c0,0.9-0.7,1.6-1.5,1.6l-22.2,0
	l-22.1,0c-0.4,0-0.9-0.1-1.2-0.5C1.1,44.9,1,44.5,1,44.1l0-28.8c0,0,0-0.1,0-0.1c0-0.8,0.7-1.5,1.5-1.5h44.3v0
	c0.8,0,1.5,0.7,1.5,1.5L48.3,44.1z"/>
<path fill="#A4A7A8" d="M28.8,10.5c-1.2-1.2-2.8-1.9-4.6-1.9c-1.8,0-3.5,0.7-4.6,1.9c-0.8,0.8-1.5,1.9-1.7,3.1h12.8
	C30.3,12.4,29.7,11.4,28.8,10.5 M24.2,5.6c2.6,0,5,1.1,6.8,2.8c1.7,1.7,2.8,4.1,2.8,6.8v1.5h-1.5H16.1h-1.5v-1.5
	c0-2.6,1.1-5,2.8-6.8C19.2,6.7,21.6,5.6,24.2,5.6z"/>
<path fill="#A4A7A8" d="M27,30.7l0-2h-4.7l0,2l2.3,0L27,30.7z M30,32c0,0,0,0.1,0,0.1c0,0.2-0.1,0.5-0.1,0.7
	c-0.2,0.5-0.8,0.9-1.4,0.9l-3.8,0l-3.8,0v0c-0.4,0-0.8-0.2-1.1-0.5c-0.2-0.2-0.3-0.5-0.4-0.8c0-0.1,0-0.1,0-0.2l0-4.9
	c0,0,0-0.1,0-0.1c0-0.8,0.7-1.5,1.5-1.5h7.7v0c0.8,0,1.5,0.7,1.5,1.5L30,32z"/>
<path fill="#A4A7A8" d="M39.4,25.7c0.8,0,1.5,0.7,1.5,1.5s-0.7,1.5-1.5,1.5H9.9c-0.8,0-1.5-0.7-1.5-1.5s0.7-1.5,1.5-1.5H39.4z"/>
</svg>
