<?xml version="1.0" encoding="utf-8"?>
<!-- Generator: Adobe Illustrator 18.0.0, SVG Export Plug-In . SVG Version: 6.00 Build 0)  -->
<!DOCTYPE svg PUBLIC "-//W3C//DTD SVG 1.1//EN" "http://www.w3.org/Graphics/SVG/1.1/DTD/svg11.dtd">
<svg version="1.1" id="Layer_1" xmlns="http://www.w3.org/2000/svg" xmlns:xlink="http://www.w3.org/1999/xlink" x="0px" y="0px"
	 width="50px" height="50px" viewBox="0 0 50 50" enable-background="new 0 0 50 50" xml:space="preserve">
<path fill="#A4A7A8" d="M4,5.4L48.3,44l0,0c0.3,0.3,0.5,0.7,0.5,1.1c0,0.8-0.7,1.5-1.5,1.5L3,46.6c-0.8,0-1.5-0.7-1.5-1.5l0-38.5
	c0-0.4,0.1-0.7,0.4-1C2.4,4.9,3.3,4.8,4,5.4 M43.3,43.7L4.5,9.8l0,33.8L43.3,43.7z"/>
<path fill="#A4A7A8" d="M16.1,23.8L32.3,38l0,0c0.3,0.3,0.5,0.7,0.5,1.1c0,0.8-0.7,1.5-1.5,1.5l-16.1,0c0,0-0.1,0-0.1,0
	c-0.8,0-1.5-0.7-1.5-1.5V24.9h0c0-0.3,0.1-0.7,0.4-1C14.6,23.3,15.5,23.3,16.1,23.8 M27.4,37.6l-10.7-9.4v9.3L27.4,37.6z"/>
<path fill="#A4A7A8" d="M9.1,17.8c0.8,0,1.5,0.7,1.5,1.5c0,0.8-0.7,1.5-1.5,1.5H6.6H4.1c-0.8,0-1.5-0.7-1.5-1.5
	c0-0.8,0.7-1.5,1.5-1.5h2.5H9.1z"/>
<path fill="#A4A7A8" d="M9.1,24.1c0.8,0,1.5,0.7,1.5,1.5c0,0.8-0.7,1.5-1.5,1.5H6.6H4.1c-0.8,0-1.5-0.7-1.5-1.5
	c0-0.8,0.7-1.5,1.5-1.5h2.5H9.1z"/>
<path fill="#A4A7A8" d="M9.1,30.5c0.8,0,1.5,0.7,1.5,1.5c0,0.8-0.7,1.5-1.5,1.5H6.6H4.1c-0.8,0-1.5-0.7-1.5-1.5
	c0-0.8,0.7-1.5,1.5-1.5h2.5H9.1z"/>
<path fill="#A4A7A8" d="M9.1,36.8c0.8,0,1.5,0.7,1.5,1.5s-0.7,1.5-1.5,1.5H6.6H4.1c-0.8,0-1.5-0.7-1.5-1.5s0.7-1.5,1.5-1.5h2.5H9.1z
	"/>
</svg>
