<?xml version="1.0" encoding="utf-8"?>
<!-- Generator: Adobe Illustrator 18.0.0, SVG Export Plug-In . SVG Version: 6.00 Build 0)  -->
<!DOCTYPE svg PUBLIC "-//W3C//DTD SVG 1.1//EN" "http://www.w3.org/Graphics/SVG/1.1/DTD/svg11.dtd">
<svg version="1.1" id="Layer_1" xmlns="http://www.w3.org/2000/svg" xmlns:xlink="http://www.w3.org/1999/xlink" x="0px" y="0px"
	 width="50px" height="50px" viewBox="0 0 50 50" enable-background="new 0 0 50 50" xml:space="preserve">
<path fill="#A4A7A8" d="M25.6,45.2L25.6,45.2 M47.6,21.9l-22,23.3c0,0,0,0-0.1,0.1c-0.6,0.6-1.5,0.5-2.1-0.1L1.5,22
	c-0.6-0.5-0.6-1.5-0.1-2.1L14.7,4.6C15,4.2,15.4,4,15.9,4h8.6h8.6v0c0.4,0,0.8,0.2,1.1,0.5l13.4,15.4l0,0
	C48.2,20.5,48.2,21.4,47.6,21.9z M24.5,42l20-21.1L32.4,7h-7.9h-7.9L4.5,20.9L24.5,42z"/>
<path fill="#A4A7A8" d="M36.4,21.5L25.9,44.8h0c-0.1,0.3-0.4,0.6-0.7,0.8c-0.8,0.3-1.6,0-2-0.8L12.7,21.5c-0.2-0.4-0.2-0.8,0-1.2
	L19,5c0.2-0.6,0.8-1,1.4-1h4.1h4.1v0c0.6,0,1.1,0.3,1.4,0.9l6.4,15.4C36.6,20.7,36.6,21.1,36.4,21.5 M24.5,40.5l8.9-19.7L27.6,7
	h-3.1h-3.1l-5.8,13.9L24.5,40.5z"/>
<path fill="#A4A7A8" d="M39.2,19.4c0.8,0,1.5,0.7,1.5,1.5c0,0.8-0.7,1.5-1.5,1.5H24.5H9.8c-0.8,0-1.5-0.7-1.5-1.5
	c0-0.8,0.7-1.5,1.5-1.5h14.7H39.2z"/>
</svg>
